<?xml version="1.0" encoding="UTF-8" standalone="no"?>
<!-- Created with Inkscape (http://www.inkscape.org/) -->

<svg
   width="73.699295mm"
   height="21.310408mm"
   viewBox="0 0 73.699295 21.310408"
   version="1.1"
   id="svg1"
   inkscape:version="1.4.2 (f4327f4, 2025-05-13)"
   sodipodi:docname="ForgeDrive.svg"
   xmlns:inkscape="http://www.inkscape.org/namespaces/inkscape"
   xmlns:sodipodi="http://sodipodi.sourceforge.net/DTD/sodipodi-0.dtd"
   xmlns="http://www.w3.org/2000/svg"
   xmlns:svg="http://www.w3.org/2000/svg">
  <sodipodi:namedview
     id="namedview1"
     pagecolor="#ffffff"
     bordercolor="#000000"
     borderopacity="0.25"
     inkscape:showpageshadow="2"
     inkscape:pageopacity="0.0"
     inkscape:pagecheckerboard="0"
     inkscape:deskcolor="#d1d1d1"
     inkscape:document-units="mm"
     inkscape:zoom="1.4520903"
     inkscape:cx="343.64254"
     inkscape:cy="-82.98382"
     inkscape:window-width="1920"
     inkscape:window-height="1017"
     inkscape:window-x="-8"
     inkscape:window-y="-8"
     inkscape:window-maximized="1"
     inkscape:current-layer="layer1">
    <inkscape:page
       x="0"
       y="0"
       width="73.699295"
       height="21.310408"
       id="page2"
       margin="0"
       bleed="0" />
  </sodipodi:namedview>
  <defs
     id="defs1">
    <clipPath
       clipPathUnits="userSpaceOnUse"
       id="clipPath16">
      <rect
         style="fill:none;fill-opacity:0;stroke:#000000;stroke-width:0.220722;stroke-dasharray:none;stroke-opacity:1"
         id="rect17"
         width="21.947239"
         height="13.701418"
         x="36.826366"
         y="162.31744" />
    </clipPath>
  </defs>
  <g
     inkscape:label="Layer 1"
     inkscape:groupmode="layer"
     id="layer1"
     transform="translate(-60.218545,-178.61799)">
    <text
       xml:space="preserve"
       style="font-style:normal;font-variant:normal;font-weight:bold;font-stretch:normal;font-size:10.5833px;font-family:'Times New Roman';-inkscape-font-specification:'Times New Roman, Bold';font-variant-ligatures:normal;font-variant-caps:normal;font-variant-numeric:normal;font-variant-east-asian:normal;text-align:start;writing-mode:lr-tb;direction:ltr;text-anchor:start;opacity:0.989933;fill:#000000;stroke-width:0;stroke-dasharray:none;fill-opacity:1;stroke:#000000;stroke-opacity:0"
       x="77.497871"
       y="195.08252"
       id="text1"
       transform="scale(1.0152779,0.984952)"
       inkscape:export-filename="ForgeDrive.svg"
       inkscape:export-xdpi="96"
       inkscape:export-ydpi="96"><tspan
         id="tspan1"
         style="font-style:normal;font-variant:normal;font-weight:bold;font-stretch:normal;font-size:10.5833px;font-family:'Times New Roman';-inkscape-font-specification:'Times New Roman, Bold';font-variant-ligatures:normal;font-variant-caps:normal;font-variant-numeric:normal;font-variant-east-asian:normal;stroke-width:0;stroke-dasharray:none;fill:#000000;fill-opacity:1;stroke:#000000;stroke-opacity:0"
         x="77.497871"
         y="195.08252"
         sodipodi:role="line">FOrgeDrive</tspan></text>
    <g
       id="g15"
       transform="matrix(0.85323788,0,0,1,28.3384,16.749321)"
       clip-path="url(#clipPath16)"
       style="fill:#000000;fill-opacity:1;stroke:#000000;stroke-opacity:0;stroke-width:0;stroke-dasharray:none">
      <g
         id="g16"
         style="fill:#000000;fill-opacity:1;stroke:#000000;stroke-opacity:0;stroke-width:0;stroke-dasharray:none">
        <path
           id="path2"
           style="stroke-width:0;fill:#000000;fill-opacity:1;stroke:#000000;stroke-opacity:0;stroke-dasharray:none"
           d="m 44.965251,163.09603 v 1.36943 h -1.288219 -0.238627 -5.430266 -0.644413 a 6.313591,3.1566029 0 0 0 3.156653,2.73368 6.313591,3.1566029 0 0 0 2.918026,0.42065 v 0.90588 a 3.7033202,9.2244731 57.886344 0 1 2.076777,0.89246 3.7033202,9.2244731 57.886344 0 1 -2.076777,5.07669 v 0.88987 h 3.511564 a 3.1922805,1.3461921 0 0 1 -0.0533,-0.24547 3.1922805,1.3461921 0 0 1 3.192386,-1.34617 3.1922805,1.3461921 0 0 1 3.191781,1.34617 3.1922805,1.3461921 0 0 1 -0.0533,0.24547 h 4.775558 v -3.13624 a 3.2777816,7.5578492 69.367789 0 1 -4.584778,-1.31724 3.2777816,7.5578492 69.367789 0 1 4.584778,-5.16609 v -2.66909 z" />
      </g>
    </g>
    <path
       id="path17"
       style="opacity:0.989933;fill:#000000;fill-opacity:1;stroke:#000000;stroke-width:0;stroke-dasharray:none;stroke-opacity:0"
       d="m 89.009037,178.62941 -2.861841,11.32385 h 3.681429 l -1.047481,9.96115 3.878833,-12.32948 -3.254581,-0.16123 z" />
  </g>
</svg>
